<svg width="300" height="402" viewBox="0 0 300 402" fill="none" xmlns="http://www.w3.org/2000/svg">
<path d="M193.23 56.9418H193.05C189.079 56.9418 185.86 60.1694 185.86 64.151V85.5681C185.86 89.5496 189.079 92.7773 193.05 92.7773H193.23C197.201 92.7773 200.42 89.5496 200.42 85.5681V64.151C200.42 60.1694 197.201 56.9418 193.23 56.9418Z" fill="#47DFF8"/>
<path d="M150.09 56.9418H149.91C145.939 56.9418 142.72 60.1694 142.72 64.151V85.5681C142.72 89.5496 145.939 92.7773 149.91 92.7773H150.09C154.061 92.7773 157.28 89.5496 157.28 85.5681V64.151C157.28 60.1694 154.061 56.9418 150.09 56.9418Z" fill="#47DFF8"/>
<path d="M106.94 56.9418H106.76C102.789 56.9418 99.5698 60.1694 99.5698 64.151V85.5681C99.5698 89.5496 102.789 92.7773 106.76 92.7773H106.94C110.911 92.7773 114.13 89.5496 114.13 85.5681V64.151C114.13 60.1694 110.911 56.9418 106.94 56.9418Z" fill="#47DFF8"/>
<path d="M218.22 74.8597H205.29V86.23C205.29 89.1552 204.131 91.9606 202.068 94.029C200.005 96.0974 197.207 97.2594 194.29 97.2594H192.42C189.503 97.2594 186.705 96.0974 184.642 94.029C182.579 91.9606 181.42 89.1552 181.42 86.23V74.8597H161.91V86.23C161.91 89.1552 160.751 91.9606 158.688 94.029C156.625 96.0974 153.827 97.2594 150.91 97.2594H149.03C146.113 97.2594 143.315 96.0974 141.252 94.029C139.189 91.9606 138.03 89.1552 138.03 86.23V74.8597H118.52V86.23C118.52 89.1552 117.361 91.9606 115.298 94.029C113.235 96.0974 110.437 97.2594 107.52 97.2594H105.65C102.733 97.2594 99.9348 96.0974 97.8719 94.029C95.809 91.9606 94.6501 89.1552 94.6501 86.23V74.8597H81.7801C79.619 74.8597 77.4791 75.2866 75.4826 76.1162C73.4862 76.9457 71.6723 78.1615 70.1446 79.6942C68.617 81.2269 67.4055 83.0463 66.5794 85.0486C65.7533 87.0509 65.3288 89.1968 65.3301 91.3637V247.781C65.3288 249.948 65.7533 252.094 66.5794 254.096C67.4055 256.098 68.617 257.918 70.1446 259.45C71.6723 260.983 73.4862 262.199 75.4826 263.028C77.4791 263.858 79.619 264.285 81.7801 264.285H218.22C222.583 264.285 226.767 262.547 229.852 259.454C232.937 256.361 234.67 252.165 234.67 247.791V91.3737C234.673 89.206 234.249 87.059 233.424 85.0556C232.598 83.0521 231.387 81.2315 229.859 79.6977C228.331 78.164 226.517 76.9473 224.52 76.1171C222.523 75.287 220.382 74.8597 218.22 74.8597Z" fill="#FF9960"/>
<path d="M133.69 217.751C132.65 217.751 131.62 217.546 130.659 217.147C129.698 216.748 128.825 216.162 128.09 215.425L80.4299 167.637C79.0508 166.129 78.3057 164.144 78.35 162.099C78.3944 160.053 79.2247 158.103 80.6679 156.656C82.111 155.209 84.0556 154.376 86.0961 154.332C88.1366 154.287 90.1154 155.034 91.6199 156.417L133.69 198.6L208.38 123.72C209.864 122.232 211.876 121.396 213.975 121.396C216.073 121.396 218.086 122.232 219.57 123.72C221.054 125.208 221.887 127.226 221.887 129.33C221.887 131.434 221.054 133.452 219.57 134.94L139.29 215.435C138.555 216.171 137.681 216.755 136.72 217.153C135.759 217.55 134.729 217.754 133.69 217.751Z" fill="white"/>
<path d="M74.1598 292.199L96.2598 325.728V291.888C96.129 290.125 96.6289 288.372 97.6698 286.945C98.1415 286.399 98.7299 285.967 99.3913 285.68C100.053 285.394 100.77 285.261 101.49 285.291C102.223 285.256 102.955 285.387 103.632 285.673C104.308 285.96 104.913 286.394 105.4 286.945C106.453 288.367 106.96 290.122 106.83 291.888V336.638C106.83 341.631 104.767 344.127 100.64 344.127C99.6906 344.143 98.7462 343.99 97.8498 343.676C96.9896 343.366 96.2005 342.885 95.5298 342.263C94.7804 341.585 94.1095 340.825 93.5298 339.996C92.9198 339.124 92.2998 338.242 91.6798 337.339L70.0998 304.191V337.53C70.2309 339.303 69.6919 341.06 68.5898 342.453C68.1052 342.998 67.5079 343.43 66.8394 343.719C66.171 344.008 65.4476 344.148 64.7198 344.127C63.984 344.157 63.2508 344.022 62.5742 343.73C61.8976 343.439 61.2947 342.999 60.8098 342.443C59.7415 341.038 59.2191 339.292 59.3398 337.53V293.643C59.2794 292.153 59.4895 290.665 59.9598 289.251C60.4605 288.072 61.3128 287.077 62.3998 286.404C63.4861 285.676 64.7635 285.289 66.0698 285.291C66.983 285.266 67.8905 285.441 68.7298 285.802C69.4513 286.129 70.1057 286.588 70.6598 287.156C71.2959 287.838 71.8652 288.58 72.3598 289.372L74.1598 292.199Z" fill="#47DFF8"/>
<path d="M144.37 285.291C149.646 285.146 154.869 286.387 159.52 288.89C163.682 291.222 167.027 294.783 169.1 299.088C171.364 303.947 172.477 309.267 172.35 314.629C172.407 318.71 171.806 322.773 170.57 326.661C169.461 330.119 167.642 333.306 165.23 336.016C162.814 338.67 159.819 340.729 156.48 342.032C148.791 344.847 140.354 344.826 132.68 341.972C129.327 340.649 126.323 338.57 123.9 335.896C121.48 333.166 119.663 329.954 118.57 326.471C117.343 322.621 116.736 318.6 116.77 314.559C116.726 310.471 117.362 306.405 118.65 302.527C119.788 299.072 121.642 295.898 124.09 293.212C126.501 290.623 129.465 288.615 132.76 287.336C136.464 285.918 140.405 285.223 144.37 285.291ZM160.7 314.559C160.791 310.849 160.11 307.161 158.7 303.73C157.534 300.885 155.528 298.467 152.95 296.802C150.375 295.214 147.401 294.4 144.38 294.455C142.183 294.44 140.007 294.894 138 295.789C136.07 296.654 134.36 297.947 133 299.569C131.479 301.441 130.347 303.599 129.67 305.916C128.823 308.727 128.412 311.652 128.45 314.589C128.414 317.555 128.825 320.51 129.67 323.352C130.361 325.736 131.536 327.952 133.12 329.86C134.513 331.514 136.26 332.833 138.23 333.72C140.542 334.697 143.05 335.122 145.554 334.96C148.059 334.798 150.491 334.054 152.66 332.787C155.264 331.159 157.318 328.779 158.55 325.959C160.097 322.365 160.831 318.472 160.7 314.559Z" fill="#47DFF8"/>
<path d="M216 295.789H203.47V337.099C203.47 339.485 202.94 341.253 201.88 342.403C201.36 342.969 200.725 343.416 200.018 343.714C199.31 344.011 198.547 344.152 197.78 344.128C197.002 344.155 196.228 344.013 195.51 343.712C194.792 343.41 194.147 342.957 193.62 342.383C192.435 340.889 191.856 339.002 192 337.099V295.789H179.47C177.904 295.914 176.347 295.453 175.1 294.495C174.628 294.06 174.255 293.527 174.008 292.933C173.761 292.34 173.646 291.699 173.67 291.056C173.64 290.4 173.759 289.745 174.017 289.141C174.275 288.536 174.666 287.998 175.16 287.567C176.397 286.635 177.926 286.179 179.47 286.284H216C217.589 286.157 219.169 286.629 220.43 287.607C220.909 288.041 221.286 288.574 221.537 289.17C221.787 289.766 221.905 290.41 221.88 291.056C221.904 291.703 221.785 292.347 221.531 292.941C221.276 293.536 220.894 294.067 220.41 294.495C219.145 295.449 217.578 295.909 216 295.789Z" fill="#47DFF8"/>
<path d="M229.17 337.098V292.278C229.029 290.397 229.592 288.531 230.75 287.044C231.266 286.471 231.9 286.017 232.608 285.714C233.315 285.411 234.081 285.266 234.85 285.289C235.635 285.259 236.417 285.398 237.143 285.698C237.87 285.997 238.523 286.449 239.06 287.024C240.235 288.51 240.807 290.387 240.66 292.278V337.098C240.804 338.997 240.234 340.883 239.06 342.382C238.525 342.96 237.872 343.415 237.146 343.716C236.419 344.017 235.636 344.157 234.85 344.126C234.083 344.146 233.321 343.999 232.616 343.694C231.912 343.39 231.282 342.935 230.77 342.362C229.598 340.87 229.027 338.991 229.17 337.098Z" fill="#47DFF8"/>
</svg>
