<svg width="53" height="54" viewBox="0 0 53 54" fill="none" xmlns="http://www.w3.org/2000/svg">
<rect width="53" height="54" rx="5" fill="white"/>
<path d="M10.5 25.5327C9.83333 25.1478 9.83333 24.1856 10.5 23.8007L22 17.1612C22.6667 16.7763 23.5 17.2574 23.5 18.0272L23.5 31.3062C23.5 32.076 22.6667 32.5572 22 32.1723L10.5 25.5327Z" fill="#79F2C5"/>
<path d="M21.5 24.8125C21.5 23.8115 22.3146 22.9883 23.3078 23.1131C24.5908 23.2744 25.8492 23.6068 27.0489 24.1037C28.8081 24.8324 30.4066 25.9005 31.753 27.247C33.0995 28.5934 34.1676 30.1919 34.8963 31.9511C35.3932 33.1508 35.7256 34.4092 35.8869 35.6922C36.0117 36.6854 35.1885 37.5 34.1875 37.5C33.1865 37.5 32.3904 36.683 32.2243 35.6959C32.0885 34.8889 31.8618 34.0979 31.5472 33.3383C31.0007 32.0189 30.1996 30.8201 29.1898 29.8102C28.1799 28.8004 26.9811 27.9993 25.6617 27.4528C24.9021 27.1382 24.1111 26.9115 23.3041 26.7757C22.317 26.6096 21.5 25.8135 21.5 24.8125Z" fill="#79F2C5"/>
</svg>
