<svg width="53" height="54" viewBox="0 0 53 54" fill="none" xmlns="http://www.w3.org/2000/svg">
<rect width="53" height="54" rx="5" fill="white"/>
<path d="M0 5C0 2.23858 2.23858 0 5 0H48C50.7614 0 53 2.23858 53 5V18H0V5Z" fill="#EB5DFF"/>
<path d="M19.846 12.83H15.59L14.806 15H13.462L16.99 5.298H18.46L21.974 15H20.63L19.846 12.83ZM19.482 11.794L17.718 6.866L15.954 11.794H19.482ZM30.0356 8.098C30.0356 8.91 29.7556 9.58667 29.1956 10.128C28.6449 10.66 27.8003 10.926 26.6616 10.926H24.7856V15H23.5116V5.242H26.6616C27.7629 5.242 28.5983 5.508 29.1676 6.04C29.7463 6.572 30.0356 7.258 30.0356 8.098ZM26.6616 9.876C27.3709 9.876 27.8936 9.722 28.2296 9.414C28.5656 9.106 28.7336 8.66733 28.7336 8.098C28.7336 6.894 28.0429 6.292 26.6616 6.292H24.7856V9.876H26.6616ZM36.757 15L34.433 11.01H32.893V15H31.619V5.242H34.769C35.5063 5.242 36.127 5.368 36.631 5.62C37.1443 5.872 37.527 6.21267 37.779 6.642C38.031 7.07133 38.157 7.56133 38.157 8.112C38.157 8.784 37.961 9.37667 37.569 9.89C37.1863 10.4033 36.6077 10.744 35.833 10.912L38.283 15H36.757ZM32.893 9.988H34.769C35.4597 9.988 35.9777 9.82 36.323 9.484C36.6683 9.13867 36.841 8.68133 36.841 8.112C36.841 7.53333 36.6683 7.08533 36.323 6.768C35.987 6.45067 35.469 6.292 34.769 6.292H32.893V9.988Z" fill="#F8F3F9"/>
<path d="M22.654 38.956C22.8273 39.944 23.226 40.7067 23.85 41.244C24.4913 41.7813 25.3493 42.05 26.424 42.05C27.8627 42.05 28.92 41.4867 29.596 40.36C30.2893 39.2333 30.6187 37.3353 30.584 34.666C30.22 35.446 29.6133 36.0613 28.764 36.512C27.9147 36.9453 26.97 37.162 25.93 37.162C24.7687 37.162 23.7287 36.928 22.81 36.46C21.9087 35.9747 21.198 35.2727 20.678 34.354C20.158 33.4353 19.898 32.326 19.898 31.026C19.898 29.1713 20.4353 27.6807 21.51 26.554C22.5847 25.41 24.11 24.838 26.086 24.838C28.5127 24.838 30.2113 25.6267 31.182 27.204C32.17 28.7813 32.664 31.13 32.664 34.25C32.664 36.434 32.4647 38.2367 32.066 39.658C31.6847 41.0793 31.026 42.1627 30.09 42.908C29.1713 43.6533 27.906 44.026 26.294 44.026C24.526 44.026 23.148 43.5493 22.16 42.596C21.172 41.6427 20.6087 40.4293 20.47 38.956H22.654ZM26.32 35.16C27.4813 35.16 28.4347 34.8047 29.18 34.094C29.9253 33.366 30.298 32.3867 30.298 31.156C30.298 29.856 29.934 28.8073 29.206 28.01C28.478 27.2127 27.4553 26.814 26.138 26.814C24.9247 26.814 23.954 27.1953 23.226 27.958C22.5153 28.7207 22.16 29.726 22.16 30.974C22.16 32.2393 22.5153 33.2533 23.226 34.016C23.9367 34.7787 24.968 35.16 26.32 35.16Z" fill="#383139"/>
</svg>
