<svg width="53" height="54" viewBox="0 0 53 54" fill="none" xmlns="http://www.w3.org/2000/svg">
<rect width="53" height="54" rx="5" fill="white"/>
<rect x="10" y="7" width="33" height="7" rx="1" fill="#47DFF8"/>
<rect x="12" y="15" width="29" height="21" rx="1" fill="#47DFF8"/>
<rect x="19" y="20" width="15" height="3" rx="1.5" fill="white"/>
<path d="M17.2227 45.0947H14.4102V48H12.9453V40.8906H17.5742V42.0771H14.4102V43.9131H17.2227V45.0947ZM18.0039 45.3096C18.0039 44.7855 18.1048 44.3184 18.3066 43.9082C18.5085 43.498 18.7982 43.1807 19.1758 42.9561C19.5566 42.7314 19.9977 42.6191 20.499 42.6191C21.2119 42.6191 21.793 42.8372 22.2422 43.2734C22.6947 43.7096 22.9469 44.3021 22.999 45.0508L23.0088 45.4121C23.0088 46.2227 22.7826 46.8737 22.3301 47.3652C21.8776 47.8535 21.2705 48.0977 20.5088 48.0977C19.7471 48.0977 19.1383 47.8535 18.6826 47.3652C18.2301 46.877 18.0039 46.2129 18.0039 45.373V45.3096ZM19.415 45.4121C19.415 45.9134 19.5094 46.2975 19.6982 46.5645C19.887 46.8281 20.1572 46.96 20.5088 46.96C20.8506 46.96 21.1175 46.8298 21.3096 46.5693C21.5016 46.3057 21.5977 45.8857 21.5977 45.3096C21.5977 44.818 21.5016 44.4372 21.3096 44.167C21.1175 43.8968 20.8473 43.7617 20.499 43.7617C20.154 43.7617 19.887 43.8968 19.6982 44.167C19.5094 44.4339 19.415 44.849 19.415 45.4121ZM25.3672 48H23.9512V40.5H25.3672V48ZM26.3145 45.3193C26.3145 44.4958 26.4984 43.8398 26.8662 43.3516C27.2373 42.8633 27.7435 42.6191 28.3848 42.6191C28.8991 42.6191 29.3239 42.8112 29.6592 43.1953V40.5H31.0752V48H29.8008L29.7324 47.4385C29.3809 47.8779 28.9284 48.0977 28.375 48.0977C27.7533 48.0977 27.2536 47.8535 26.876 47.3652C26.5016 46.8737 26.3145 46.1917 26.3145 45.3193ZM27.7256 45.4219C27.7256 45.9167 27.8118 46.2959 27.9844 46.5596C28.1569 46.8232 28.4076 46.9551 28.7363 46.9551C29.1725 46.9551 29.4801 46.7712 29.6592 46.4033V44.3184C29.4834 43.9505 29.179 43.7666 28.7461 43.7666C28.0658 43.7666 27.7256 44.3184 27.7256 45.4219ZM34.6006 48.0977C33.8258 48.0977 33.1943 47.86 32.7061 47.3848C32.221 46.9095 31.9785 46.2764 31.9785 45.4854V45.3486C31.9785 44.818 32.0811 44.3444 32.2861 43.9277C32.4912 43.5078 32.7809 43.1855 33.1553 42.9609C33.5329 42.7331 33.9626 42.6191 34.4443 42.6191C35.167 42.6191 35.735 42.847 36.1484 43.3027C36.5651 43.7585 36.7734 44.4046 36.7734 45.2412V45.8174H33.4092C33.4548 46.1624 33.5915 46.4391 33.8193 46.6475C34.0505 46.8558 34.3418 46.96 34.6934 46.96C35.237 46.96 35.6618 46.763 35.9678 46.3691L36.6611 47.1455C36.4495 47.445 36.1631 47.6794 35.8018 47.8486C35.4404 48.0146 35.04 48.0977 34.6006 48.0977ZM34.4395 43.7617C34.1595 43.7617 33.9316 43.8561 33.7559 44.0449C33.5833 44.2337 33.4727 44.5039 33.4238 44.8555H35.3867V44.7432C35.3802 44.4307 35.2956 44.1898 35.1328 44.0205C34.9701 43.848 34.7389 43.7617 34.4395 43.7617ZM40.5479 44.04C40.3558 44.014 40.1865 44.001 40.04 44.001C39.5062 44.001 39.1562 44.1816 38.9902 44.543V48H37.5791V42.7168H38.9121L38.9512 43.3467C39.2344 42.8617 39.6266 42.6191 40.1279 42.6191C40.2842 42.6191 40.4307 42.6403 40.5674 42.6826L40.5479 44.04Z" fill="#68556A"/>
</svg>
