<svg width="414" height="80" viewBox="0 0 414 80" fill="none" xmlns="http://www.w3.org/2000/svg">
<rect width="414" height="80" fill="white"/>
<rect x="109.5" y="20.5" width="209" height="39" rx="4.5" fill="white" stroke="#AE9FAF"/>
<path d="M155.172 44.098C154.528 44.098 153.949 43.986 153.436 43.762C152.932 43.5287 152.535 43.2113 152.246 42.81C151.957 42.3993 151.807 41.928 151.798 41.396H153.156C153.203 41.8533 153.389 42.2407 153.716 42.558C154.052 42.866 154.537 43.02 155.172 43.02C155.779 43.02 156.255 42.8707 156.6 42.572C156.955 42.264 157.132 41.872 157.132 41.396C157.132 41.0227 157.029 40.7193 156.824 40.486C156.619 40.2527 156.362 40.0753 156.054 39.954C155.746 39.8327 155.331 39.702 154.808 39.562C154.164 39.394 153.646 39.226 153.254 39.058C152.871 38.89 152.54 38.6287 152.26 38.274C151.989 37.91 151.854 37.4247 151.854 36.818C151.854 36.286 151.989 35.8147 152.26 35.404C152.531 34.9933 152.909 34.676 153.394 34.452C153.889 34.228 154.453 34.116 155.088 34.116C156.003 34.116 156.749 34.3447 157.328 34.802C157.916 35.2593 158.247 35.866 158.322 36.622H156.922C156.875 36.2487 156.679 35.922 156.334 35.642C155.989 35.3527 155.531 35.208 154.962 35.208C154.43 35.208 153.996 35.348 153.66 35.628C153.324 35.8987 153.156 36.2813 153.156 36.776C153.156 37.1307 153.254 37.42 153.45 37.644C153.655 37.868 153.903 38.0407 154.192 38.162C154.491 38.274 154.906 38.4047 155.438 38.554C156.082 38.7313 156.6 38.9087 156.992 39.086C157.384 39.254 157.72 39.52 158 39.884C158.28 40.2387 158.42 40.724 158.42 41.34C158.42 41.816 158.294 42.264 158.042 42.684C157.79 43.104 157.417 43.4447 156.922 43.706C156.427 43.9673 155.844 44.098 155.172 44.098ZM167.295 39.87C167.295 40.1127 167.281 40.3693 167.253 40.64H161.121C161.167 41.396 161.424 41.9887 161.891 42.418C162.367 42.838 162.941 43.048 163.613 43.048C164.163 43.048 164.621 42.922 164.985 42.67C165.358 42.4087 165.619 42.0633 165.769 41.634H167.141C166.935 42.3713 166.525 42.9733 165.909 43.44C165.293 43.8973 164.527 44.126 163.613 44.126C162.885 44.126 162.231 43.9627 161.653 43.636C161.083 43.3093 160.635 42.8473 160.309 42.25C159.982 41.6433 159.819 40.9433 159.819 40.15C159.819 39.3567 159.977 38.6613 160.295 38.064C160.612 37.4667 161.055 37.0093 161.625 36.692C162.203 36.3653 162.866 36.202 163.613 36.202C164.341 36.202 164.985 36.3607 165.545 36.678C166.105 36.9953 166.534 37.434 166.833 37.994C167.141 38.5447 167.295 39.17 167.295 39.87ZM165.979 39.604C165.979 39.1187 165.871 38.7033 165.657 38.358C165.442 38.0033 165.148 37.7373 164.775 37.56C164.411 37.3733 164.005 37.28 163.557 37.28C162.913 37.28 162.362 37.4853 161.905 37.896C161.457 38.3067 161.2 38.876 161.135 39.604H165.979ZM168.5 40.136C168.5 39.352 168.659 38.666 168.976 38.078C169.294 37.4807 169.728 37.0187 170.278 36.692C170.838 36.3653 171.459 36.202 172.14 36.202C172.812 36.202 173.396 36.3467 173.89 36.636C174.385 36.9253 174.754 37.2893 174.996 37.728V36.328H176.284V44H174.996V42.572C174.744 43.02 174.366 43.3933 173.862 43.692C173.368 43.9813 172.789 44.126 172.126 44.126C171.445 44.126 170.829 43.958 170.278 43.622C169.728 43.286 169.294 42.8147 168.976 42.208C168.659 41.6013 168.5 40.9107 168.5 40.136ZM174.996 40.15C174.996 39.5713 174.88 39.0673 174.646 38.638C174.413 38.2087 174.096 37.882 173.694 37.658C173.302 37.4247 172.868 37.308 172.392 37.308C171.916 37.308 171.482 37.42 171.09 37.644C170.698 37.868 170.386 38.1947 170.152 38.624C169.919 39.0533 169.802 39.5573 169.802 40.136C169.802 40.724 169.919 41.2373 170.152 41.676C170.386 42.1053 170.698 42.4367 171.09 42.67C171.482 42.894 171.916 43.006 172.392 43.006C172.868 43.006 173.302 42.894 173.694 42.67C174.096 42.4367 174.413 42.1053 174.646 41.676C174.88 41.2373 174.996 40.7287 174.996 40.15ZM179.711 37.574C179.935 37.1353 180.253 36.7947 180.663 36.552C181.083 36.3093 181.592 36.188 182.189 36.188V37.504H181.853C180.425 37.504 179.711 38.2787 179.711 39.828V44H178.437V36.328H179.711V37.574ZM183.184 40.15C183.184 39.3567 183.343 38.666 183.66 38.078C183.977 37.4807 184.416 37.0187 184.976 36.692C185.545 36.3653 186.194 36.202 186.922 36.202C187.865 36.202 188.639 36.4307 189.246 36.888C189.862 37.3453 190.268 37.98 190.464 38.792H189.092C188.961 38.3253 188.705 37.9567 188.322 37.686C187.949 37.4153 187.482 37.28 186.922 37.28C186.194 37.28 185.606 37.532 185.158 38.036C184.71 38.5307 184.486 39.2353 184.486 40.15C184.486 41.074 184.71 41.788 185.158 42.292C185.606 42.796 186.194 43.048 186.922 43.048C187.482 43.048 187.949 42.9173 188.322 42.656C188.695 42.3947 188.952 42.0213 189.092 41.536H190.464C190.259 42.32 189.848 42.95 189.232 43.426C188.616 43.8927 187.846 44.126 186.922 44.126C186.194 44.126 185.545 43.9627 184.976 43.636C184.416 43.3093 183.977 42.8473 183.66 42.25C183.343 41.6527 183.184 40.9527 183.184 40.15ZM195.972 36.188C196.551 36.188 197.073 36.314 197.54 36.566C198.007 36.8087 198.371 37.1773 198.632 37.672C198.903 38.1667 199.038 38.7687 199.038 39.478V44H197.778V39.66C197.778 38.8947 197.587 38.3113 197.204 37.91C196.821 37.4993 196.299 37.294 195.636 37.294C194.964 37.294 194.427 37.504 194.026 37.924C193.634 38.344 193.438 38.9553 193.438 39.758V44H192.164V33.64H193.438V37.42C193.69 37.028 194.035 36.7247 194.474 36.51C194.922 36.2953 195.421 36.188 195.972 36.188Z" fill="#AE9FAF"/>
<circle cx="130.021" cy="37.0208" r="7.5" transform="rotate(-45 130.021 37.0208)" stroke="#AE9FAF" stroke-width="2"/>
<line x1="136.385" y1="42.6776" x2="141.335" y2="47.6274" stroke="#AE9FAF" stroke-width="2" stroke-linecap="round"/>
<rect x="339" y="13" width="53" height="54" rx="5" fill="white"/>
<circle cx="366" cy="32.0001" r="11" fill="#79F2C5"/>
<path d="M348 53C348 48.5817 351.582 45 356 45H376C380.418 45 384 48.5817 384 53V56C384 57.6569 382.657 59 381 59H351C349.343 59 348 57.6569 348 56V53Z" fill="#79F2C5"/>
<path d="M355 27C355 23.6863 357.686 21 361 21H371C374.314 21 377 23.6863 377 27V32H355V27Z" fill="#79F2C5"/>
</svg>
